Coordinates
version=1
nRows=13
nColumns=30
inDegrees=yes

Units are S.I. units (second, meters, Newtons, ...)
Angles are in degrees.

endheader
time	floatyaw	floatroll	floatpitch	floatx	floaty	floatz	pro_sup_l	deviation_l	flexion_l	cmc_flexion_l	cmc_abduction_l	mp_flexion_l	ip_flexion_l	2mcp_flexion_l	2mcp_abduction_l	2pm_flexion_l	2md_flexion_l	3mcp_flexion_l	3mcp_abduction_l	3pm_flexion_l	3md_flexion_l	4mcp_flexion_l	4mcp_abduction_l	4pm_flexion_l	4md_flexion_l	5mcp_flexion_l	5mcp_abduction_l	5pm_flexion_l	5md_flexion_l
0.005000	-160.147433	-5.066637	-73.570646	-0.052766	-0.097493	-0.088252	131.440777	37.370528	-25.456998	19.735707	40.333388	-15.814818	-51.513354	11.841045	6.853205	55.416508	42.794623	31.063140	6.375659	48.821012	38.429236	30.463165	-4.207136	51.322504	49.145443	7.731294	-14.130732	64.025098	60.099703
0.015000	-160.147433	-5.066637	-73.570646	-0.052788	-0.094357	-0.087539	130.996609	37.815063	-25.719016	19.686472	40.393306	-15.351027	-51.264137	12.852040	6.861922	55.165294	42.241987	32.252472	6.465793	47.999630	38.146104	31.715352	-4.201033	50.472819	49.493593	8.449194	-14.206350	64.146173	60.766912
0.025000	-160.147433	-5.066637	-73.570646	-0.052792	-0.090962	-0.086944	130.678807	38.237090	-26.066556	19.711480	40.552336	-14.828452	-50.854087	13.864444	6.864690	54.885683	41.635994	33.431550	6.542875	47.079827	37.844398	32.917748	-4.192244	49.530985	49.793162	9.150062	-14.260321	64.202849	61.385871
0.035000	-160.147433	-5.066637	-73.570646	-0.052757	-0.087723	-0.086478	130.507905	38.620822	-26.402648	19.775976	40.860466	-14.286878	-50.449324	14.726649	6.886144	54.641101	41.094100	34.442893	6.585161	46.174187	37.615127	33.998964	-4.185011	48.462326	50.109468	9.800328	-14.263315	64.099960	62.004886
0.045000	-160.147433	-5.066637	-73.570646	-0.052651	-0.085030	-0.086145	130.473089	38.936007	-26.633929	19.834643	41.316760	-13.778765	-50.223567	15.314140	6.945705	54.483663	40.706705	35.166806	6.582758	45.413114	37.512310	34.897708	-4.182167	47.310834	50.479072	10.342588	-14.205723	63.839383	62.654288
0.055000	-160.147433	-5.066637	-73.570646	-0.052444	-0.083129	-0.085946	130.519077	39.149010	-26.695011	19.840435	41.857505	-13.350196	-50.266751	15.581019	7.046793	54.426260	40.504012	35.559293	6.541466	44.878409	37.531256	35.562435	-4.184008	46.192426	50.884007	10.697854	-14.100882	63.506980	63.326958
0.065000	-160.147433	-5.066637	-73.570646	-0.052121	-0.082056	-0.085885	130.558043	39.239052	-26.563835	19.758862	42.378208	-13.025748	-50.535110	15.572937	7.174529	54.437508	40.453115	35.659537	6.480319	44.566319	37.615562	35.960873	-4.188976	45.246896	51.254791	10.792655	-13.978054	63.219116	63.975919
0.075000	-160.147433	-5.066637	-73.570646	-0.051693	-0.081658	-0.085955	130.504535	39.209272	-26.262067	19.579152	42.779803	-12.802905	-50.875892	15.395037	7.304438	54.464404	40.484702	35.562319	6.422888	44.404459	37.689610	36.093254	-4.195057	44.577440	51.505123	10.596366	-13.869424	63.065183	64.531585
0.085000	-160.147433	-5.066637	-73.570646	-0.051197	-0.081673	-0.086140	130.312368	39.085839	-25.840948	19.316178	43.010249	-12.658073	-51.107289	15.158819	7.415833	54.462529	40.529714	35.371888	6.386884	44.303607	37.695658	35.996984	-4.200862	44.211517	51.576758	10.142186	-13.797591	63.076891	64.928533
0.095000	-160.147433	-5.066637	-73.570646	-0.050680	-0.081840	-0.086412	129.990122	38.906871	-25.359743	19.002511	43.077557	-12.559921	-51.099134	14.942330	7.500316	54.410183	40.543584	35.164505	6.377802	44.202387	37.613484	35.737215	-4.206020	44.099748	51.465031	9.516588	-13.768480	63.230312	65.127466
0.105000	-160.147433	-5.066637	-73.570646	-0.050184	-0.081974	-0.086731	129.587856	38.708621	-24.866220	18.675113	43.032397	-12.482309	-50.811124	14.780549	7.560894	54.302216	40.510015	34.976752	6.389260	44.078061	37.455815	35.388093	-4.211050	44.145772	51.211095	8.825219	-13.771207	63.466938	65.123948
0.115000	-160.147433	-5.066637	-73.570646	-0.049730	-0.081994	-0.087055	129.166066	38.515645	-24.385895	18.363147	42.936587	-12.410854	-50.283312	14.678451	7.605124	54.137545	40.431608	34.816894	6.408380	43.928836	37.249642	35.014426	-4.217029	44.246345	50.872037	8.156814	-13.783842	63.717652	64.944825
0.125000	-160.147433	-5.066637	-73.570646	-0.049321	-0.081899	-0.087352	128.765749	38.337371	-23.921875	18.081474	42.836578	-12.341829	-49.601525	14.629258	7.638946	53.914138	40.318564	34.684033	6.422484	43.751461	37.018876	34.661134	-4.225231	44.321960	50.493168	7.562642	-13.782637	63.921321	64.638155
